HIERARCHY
ROOT root
{
	OFFSET	0.000000	0.000000	0.000000
	CHANNELS 6 Xposition Yposition Zposition Zrotation Yrotation Xrotation
	JOINT lhipjoint
	{
		OFFSET	0.000000	0.000000	0.000000
		CHANNELS 3 Zrotation Yrotation Xrotation
		JOINT lfemur
		{
			OFFSET	1.656736	-1.802822	0.624766
			CHANNELS 3 Zrotation Yrotation Xrotation
			JOINT ltibia
			{
				OFFSET	2.597200	-7.135754	0.000000
				CHANNELS 3 Zrotation Yrotation Xrotation
				JOINT lfoot
				{
					OFFSET	2.492357	-6.847701	0.000000
					CHANNELS 3 Zrotation Yrotation Xrotation
					JOINT ltoes
					{
						OFFSET	0.197038	-0.541357	2.145811
						CHANNELS 3 Zrotation Yrotation Xrotation
						End Site
						{
							OFFSET	0.000000	-0.000000	1.112490
						}
					}
				}
			}
		}
	}
	JOINT rhipjoint
	{
		OFFSET	0.000000	0.000000	0.000000
		CHANNELS 3 Zrotation Yrotation Xrotation
		JOINT rfemur
		{
			OFFSET	-1.610701	-1.802823	0.624765
			CHANNELS 3 Zrotation Yrotation Xrotation
			JOINT rtibia
			{
				OFFSET	-2.595021	-7.129768	0.000000
				CHANNELS 3 Zrotation Yrotation Xrotation
				JOINT rfoot
				{
					OFFSET	-2.467804	-6.780241	0.000000
					CHANNELS 3 Zrotation Yrotation Xrotation
					JOINT rtoes
					{
						OFFSET	-0.230239	-0.632577	2.133676
						CHANNELS 3 Zrotation Yrotation Xrotation
						End Site
						{
							OFFSET	-0.000000	-0.000000	1.115690
						}
					}
				}
			}
		}
	}
	JOINT lowerback
	{
		OFFSET	0.000000	0.000000	0.000000
		CHANNELS 3 Zrotation Yrotation Xrotation
		JOINT upperback
		{
			OFFSET	0.019612	2.054496	-0.141116
			CHANNELS 3 Zrotation Yrotation Xrotation
			JOINT thorax
			{
				OFFSET	0.010210	2.064356	-0.059210
				CHANNELS 3 Zrotation Yrotation Xrotation
				JOINT lowerneck
				{
					OFFSET	0.001509	2.068054	0.008037
					CHANNELS 3 Zrotation Yrotation Xrotation
					JOINT upperneck
					{
						OFFSET	0.007130	1.567112	0.149683
						CHANNELS 3 Zrotation Yrotation Xrotation
						JOINT head
						{
							OFFSET	0.034286	1.560409	-0.100058
							CHANNELS 3 Zrotation Yrotation Xrotation
							End Site
							{
								OFFSET	0.013051	1.625595	-0.052648
							}
						}
					}
				}
				JOINT lclavicle
				{
					OFFSET	0.001509	2.068054	0.008037
					CHANNELS 3 Zrotation Yrotation Xrotation
					JOINT lhumerus
					{
						OFFSET	3.542050	0.904362	-0.173638
						CHANNELS 3 Zrotation Yrotation Xrotation
						JOINT lradius
						{
							OFFSET	4.865130	-0.000000	-0.000000
							CHANNELS 3 Zrotation Yrotation Xrotation
							JOINT lwrist
							{
								OFFSET	3.355540	-0.000000	0.000000
								CHANNELS 3 Zrotation Yrotation Xrotation
								JOINT lhand
								{
									OFFSET	1.677770	-0.000000	0.000000
									CHANNELS 3 Zrotation Yrotation Xrotation
									JOINT lfingers
									{
										OFFSET	0.661175	-0.000000	0.000000
										CHANNELS 3 Zrotation Yrotation Xrotation
										End Site
										{
											OFFSET	0.533057	-0.000000	0.000000
										}
									}
								}
								JOINT lthumb
								{
									OFFSET	1.677770	-0.000000	0.000000
									CHANNELS 3 Zrotation Yrotation Xrotation
									End Site
									{
										OFFSET	0.541196	-0.000000	0.541196
									}
								}
							}
						}
					}
				}
				JOINT rclavicle
				{
					OFFSET	0.001509	2.068054	0.008037
					CHANNELS 3 Zrotation Yrotation Xrotation
					JOINT rhumerus
					{
						OFFSET	-3.498016	0.759940	-0.326156
						CHANNELS 3 Zrotation Yrotation Xrotation
						JOINT rradius
						{
							OFFSET	-5.026490	-0.000000	0.000000
							CHANNELS 3 Zrotation Yrotation Xrotation
							JOINT rwrist
							{
								OFFSET	-3.364310	-0.000000	0.000000
								CHANNELS 3 Zrotation Yrotation Xrotation
								JOINT rhand
								{
									OFFSET	-1.682160	-0.000000	0.000000
									CHANNELS 3 Zrotation Yrotation Xrotation
									JOINT rfingers
									{
										OFFSET	-0.730406	-0.000000	0.000000
										CHANNELS 3 Zrotation Yrotation Xrotation
										End Site
										{
											OFFSET	-0.588872	-0.000000	0.000000
										}
									}
								}
								JOINT rthumb
								{
									OFFSET	-1.682160	-0.000000	0.000000
									CHANNELS 3 Zrotation Yrotation Xrotation
									End Site
									{
										OFFSET	-0.597863	-0.000000	0.597863
									}
								}
							}
						}
					}
				}
			}
		}
	}
}
MOTION
Frames:	11
Frame Time:	0.008333
	10.045700	17.488800	-0.718195	2.299990	-3.296610	-5.431301	0.000000	0.000000	0.000000	-28.680849	-3.623044	-6.038545	2.365167	9.588520	27.654242	0.628081	5.491016	-17.971037	0.015033	-0.791624	-2.175627	0.000000	0.000000	0.000000	18.310453	7.614923	-11.693924	-13.221702	-18.860752	69.812698	0.772614	-15.552880	-8.551905	-0.763710	5.580769	-15.572738	-1.484990	-0.038852	5.852370	0.084860	-0.138147	1.649480	0.930415	-0.067094	-1.579240	3.739950	7.973759	-8.231100	-3.837651	10.550800	5.695519	-1.278030	5.152610	3.776200	-0.000000	-0.000000	0.000000	-91.188362	3.967276	22.531107	21.536995	-32.449802	-6.335617	0.000000	-0.000002	-24.801491	23.521214	21.989260	9.256280	-7.125019	0.000000	0.000000	-5.587563	53.662529	-1.193054	-0.000000	-0.000000	0.000000	85.584503	1.744763	32.479038	-16.814774	26.612946	-4.004008	0.000000	0.000000	-11.062896	-22.491194	14.924715	-6.086686	7.125019	0.000000	0.000000	3.425654	-13.908474	2.506357
	10.049100	17.496901	-0.566534	1.940080	-2.892190	-5.473991	0.000000	0.000000	0.000000	-28.384115	-3.653481	-5.446596	2.371594	9.600604	27.692802	0.645325	5.443254	-18.125130	0.075724	-1.775194	-4.884778	0.000000	0.000000	0.000000	18.683199	8.070782	-12.764593	-13.115413	-18.823437	69.483582	0.752836	-15.588112	-9.759108	-0.789900	5.673452	-15.839827	-1.210410	-0.080011	6.122350	0.279293	-0.176381	1.652020	0.979738	-0.085676	-1.726310	3.604190	7.848689	-8.225389	-3.913861	10.408301	5.773571	-1.289010	5.075430	3.792991	0.000000	0.000000	0.000000	-90.936493	3.502598	23.892351	22.613968	-33.663967	-6.923115	0.000000	-0.000002	-25.308901	23.517763	22.464823	9.441304	-7.125019	0.000000	0.000000	-5.748864	54.161572	-1.297741	0.000000	0.000000	0.000000	85.654793	0.976807	31.493132	-16.173676	25.755571	-3.721112	0.000000	-0.000002	-10.833797	-22.597754	14.829474	-6.080621	7.125019	0.000000	0.000000	3.347890	-13.997594	2.442938
	10.053000	17.491899	-0.415291	1.732640	-2.432440	-5.305930	0.000000	0.000000	0.000000	-28.254400	-3.716875	-5.060595	2.379369	9.615200	27.739395	0.688523	5.176625	-18.402391	0.115553	-2.191627	-6.035540	0.000000	0.000000	0.000000	18.783468	8.510403	-14.112656	-12.973097	-18.772429	69.041931	0.678722	-15.301615	-11.226875	-0.717379	5.412545	-15.089052	-1.039770	-0.183131	6.193511	0.379519	-0.301890	1.533600	0.997145	-0.147063	-1.884900	3.514520	7.689519	-7.870811	-3.951010	10.210101	5.542741	-1.317770	4.980820	3.631120	0.000000	-0.000000	0.000000	-90.526993	3.235016	25.264914	23.790335	-34.941757	-7.586137	0.000000	0.000000	-26.020090	23.763756	22.631838	9.616292	-7.125019	0.000000	0.000000	-5.549571	54.385506	-1.282861	0.000000	-0.000000	0.000000	85.747963	0.049362	30.915834	-15.585136	24.954916	-3.469072	0.000000	-0.000002	-11.308193	-22.601040	15.386319	-6.302781	7.125019	0.000000	0.000000	3.379355	-13.402703	2.508459
	10.059000	17.481199	-0.255929	1.981470	-1.944950	-5.153679	0.000000	0.000000	0.000000	-28.656656	-3.776216	-4.548194	2.372302	9.601939	27.697060	0.779992	4.639996	-18.998224	0.056931	-1.539647	-4.235021	0.000000	0.000000	0.000000	18.276793	8.835631	-15.437967	-12.785845	-18.703472	68.459030	0.626090	-15.034712	-11.850680	-0.775415	5.622400	-15.692652	-1.417400	-0.325515	6.119040	0.391382	-0.514121	1.479270	1.237330	-0.251167	-1.890400	3.625280	7.629611	-7.614081	-4.124671	10.136101	5.443799	-1.410110	4.944240	3.563330	0.000000	0.000000	0.000000	-90.270470	2.967710	26.222858	25.103676	-36.309769	-8.351221	-0.000000	0.000002	-26.544497	24.031717	22.731663	9.776071	-7.125019	0.000000	0.000000	-5.303660	54.543743	-1.246224	0.000000	0.000000	0.000000	85.776581	-0.826719	30.548971	-15.076631	24.252758	-3.257359	-0.000000	0.000002	-12.028200	-22.730202	16.274752	-6.696000	7.125019	0.000000	0.000000	3.350298	-12.438480	2.554514
	10.061900	17.459200	-0.094532	2.280880	-1.497870	-5.216351	0.000000	0.000000	0.000000	-29.120615	-3.639210	-3.730608	2.334706	9.530972	27.470827	0.844382	4.301405	-19.433065	0.056157	-1.529143	-4.206065	0.000000	0.000000	0.000000	17.789663	9.221183	-16.454060	-12.560184	-18.617550	67.753746	0.580651	-14.702848	-12.046320	-0.839876	5.845850	-16.337816	-1.779010	-0.406509	6.082610	0.347399	-0.643729	1.631440	1.403570	-0.317501	-1.705740	3.478390	7.585772	-7.609501	-4.000600	10.077201	5.294991	-1.351020	4.918080	3.489500	-0.000000	-0.000000	0.000000	-90.031975	2.346514	27.045872	26.371054	-37.572777	-9.112978	0.000000	0.000000	-26.753698	24.121462	22.074566	9.552135	-7.125019	0.000000	0.000000	-4.994733	53.868557	-1.091082	-0.000000	-0.000000	0.000000	86.029922	-1.247545	29.299313	-14.398949	23.302156	-2.984114	0.000000	-0.000002	-11.535096	-22.534607	15.893912	-6.482659	7.125019	0.000000	0.000000	3.455967	-12.869521	2.604247
	10.068100	17.435400	0.083775	2.684610	-1.019390	-5.550021	0.000000	0.000000	0.000000	-29.757448	-3.333596	-2.504029	2.292308	9.450097	27.213688	0.893192	4.141456	-19.813726	0.095136	-1.989182	-5.475762	0.000000	0.000000	0.000000	17.191608	9.446573	-16.961399	-12.256360	-18.496931	66.799118	0.469205	-13.955462	-12.717009	-0.828119	5.805795	-16.221973	-2.130070	-0.509378	6.120390	0.222639	-0.803207	1.860710	1.482700	-0.400829	-1.481640	3.245600	7.584749	-7.491891	-3.739780	10.076899	5.127920	-1.233970	4.926070	3.375440	-0.000000	-0.000000	0.000000	-89.748566	1.735141	27.748039	27.539131	-38.688484	-9.834261	-0.000000	0.000002	-26.988592	24.071627	20.446394	8.869801	-7.125019	0.000000	0.000000	-4.558502	52.135025	-0.802097	-0.000000	-0.000000	0.000000	86.290955	-1.721784	28.052473	-13.735102	22.354746	-2.726543	0.000000	0.000000	-10.547399	-22.241945	14.388381	-5.802512	7.125019	0.000000	0.000000	3.564558	-14.509530	2.562853
	10.079300	17.415400	0.259610	2.968350	-0.410641	-5.844330	0.000000	0.000000	0.000000	-30.262396	-3.136345	-1.338809	2.267699	9.402739	27.063444	0.975416	3.707723	-20.345018	0.069701	-1.703262	-4.686279	0.000000	0.000000	0.000000	16.652321	9.501535	-17.393108	-11.861713	-18.331581	65.549828	0.320875	-13.011953	-13.685657	-0.775714	5.623455	-15.695686	-2.478630	-0.680641	6.415239	0.206268	-1.059550	1.930360	1.684000	-0.528268	-1.557030	3.353300	7.613619	-7.528961	-3.863380	10.120100	5.320310	-1.284850	4.942979	3.466860	0.000000	-0.000000	0.000000	-89.656868	1.443096	28.234261	28.811626	-39.852757	-10.639794	0.000000	0.000000	-27.059399	23.873892	19.380484	8.355312	-7.125019	0.000000	0.000000	-4.469069	50.967525	-0.658197	0.000000	-0.000000	0.000000	86.325630	-2.605486	26.947903	-13.274372	21.687904	-2.553793	-0.000000	0.000002	-9.744724	-22.002897	13.862903	-5.530057	7.125019	0.000000	0.000000	3.700390	-15.096070	2.614513
	10.083300	17.405701	0.409062	2.508150	0.067908	-5.637430	0.000000	0.000000	0.000000	-29.815025	-3.190297	-0.918513	2.257158	9.382355	26.998856	1.035028	3.325399	-20.687328	0.069384	-1.699408	-4.675645	0.000000	0.000000	0.000000	16.981430	10.010820	-18.352886	-11.382712	-18.117331	64.018288	0.201825	-12.368020	-14.620953	-0.639133	5.114756	-14.236152	-2.207070	-0.831997	6.662360	0.453759	-1.245860	1.752030	1.807290	-0.615865	-1.869850	3.453610	7.596121	-7.790938	-3.952219	10.101298	5.735140	-1.315030	4.925430	3.674999	-0.000000	-0.000000	0.000000	-89.478302	1.260428	28.981346	30.184444	-41.050968	-11.530559	0.000000	0.000000	-27.178093	23.604296	19.243074	8.195264	-7.125019	0.000000	0.000000	-4.701230	50.775398	-0.670308	-0.000000	-0.000000	0.000000	86.435860	-3.417145	25.301943	-12.744833	20.912203	-2.361427	-0.000000	0.000002	-8.750407	-21.593309	14.045547	-5.486785	7.125019	0.000000	0.000000	3.989236	-14.946044	2.832399
	10.083000	17.407801	0.563100	1.871940	0.405124	-5.399869	0.000000	0.000000	0.000000	-29.141207	-3.229092	-0.559881	2.252377	9.373091	26.969509	1.104142	3.019429	-21.150049	0.076543	-1.784735	-4.911120	0.000000	0.000000	0.000000	17.526127	10.737097	-19.237551	-10.815751	-17.843740	62.181782	0.111998	-11.876415	-15.267992	-0.687485	5.300911	-14.768838	-1.691520	-0.947690	6.720820	0.695956	-1.361120	1.572290	1.780140	-0.670782	-2.088550	3.382970	7.571040	-7.658280	-3.781110	10.070199	5.878050	-1.251670	4.916200	3.681830	-0.000000	0.000000	0.000000	-89.024551	1.079406	30.042389	31.498993	-42.144096	-12.403347	-0.000000	0.000002	-27.611197	23.571091	19.231590	8.177863	-7.125019	0.000000	0.000000	-4.731254	50.757538	-0.672522	-0.000000	0.000000	0.000000	86.645126	-4.260843	23.933245	-12.191780	20.091631	-2.167721	0.000000	0.000000	-8.119328	-21.479036	14.492481	-5.623872	7.125019	0.000000	0.000000	4.088744	-14.484087	2.943796
	10.083000	17.411600	0.732727	1.736270	0.785344	-5.387010	0.000000	0.000000	0.000000	-29.017363	-2.998905	0.087529	2.236792	9.342808	26.873665	1.187108	2.623501	-21.679325	0.073387	-1.747630	-4.808703	0.000000	0.000000	0.000000	17.487577	11.243570	-19.712959	-10.183634	-17.511827	60.100365	0.007736	-11.185930	-15.810116	-0.892408	6.021209	-16.845978	-1.706360	-1.063700	6.646830	0.810934	-1.512400	1.628290	1.916680	-0.747837	-1.979610	3.001990	7.586281	-7.709210	-3.372320	10.098899	5.960529	-1.048230	4.937040	3.668610	0.000000	-0.000000	0.000000	-88.692390	0.643552	30.833721	32.720848	-43.114365	-13.230894	0.000000	-0.000002	-27.975998	23.784229	18.489151	7.956383	-7.125019	0.000000	0.000000	-4.333412	50.003674	-0.535400	0.000000	-0.000000	0.000000	86.702194	-5.040244	23.064610	-11.717150	19.379103	-2.007448	0.000000	0.000000	-8.021195	-21.563713	15.365120	-5.977925	7.125019	0.000000	0.000000	4.076884	-13.549206	3.016092
	10.082700	17.407900	0.905031	1.951520	1.231440	-5.555710	0.000000	0.000000	0.000000	-29.279587	-2.672255	1.062255	2.172078	9.215670	26.472319	1.192124	2.422068	-21.627737	0.094000	-1.977325	-5.442995	0.000000	0.000000	0.000000	17.112019	11.480711	-19.862890	-9.532256	-17.138294	57.913269	-0.100655	-10.466227	-16.371017	-0.909663	6.077586	-17.009705	-2.040020	-1.105670	6.733799	0.796647	-1.591660	1.831910	2.094690	-0.790427	-1.805650	2.590900	7.515971	-8.073630	-2.965420	10.008502	6.012311	-0.837088	4.894781	3.700440	-0.000000	0.000000	0.000000	-88.411560	0.115184	31.548737	34.209198	-44.239120	-14.258812	0.000000	0.000000	-28.182190	24.051577	17.610010	7.689818	-7.125019	0.000000	0.000000	-3.866848	49.107933	-0.392275	-0.000000	0.000000	0.000000	86.921799	-5.630990	21.397429	-11.262650	18.689730	-1.859213	0.000000	-0.000002	-7.322284	-21.343796	15.882860	-6.104076	7.125019	0.000000	0.000000	4.253407	-13.027222	3.194165
